<svg id="visual" viewBox="0 0 3840 2160" width="3840" height="2160" xmlns="http://www.w3.org/2000/svg" xmlns:xlink="http://www.w3.org/1999/xlink" version="1.1"><g><g transform="translate(1292 1251)"><path d="M31.1 -0.4C31.1 15.6 15.6 31.3 -0.7 31.3C-17 31.3 -33.9 15.6 -33.9 -0.4C-33.9 -16.5 -17 -32.9 -0.7 -32.9C15.6 -32.9 31.1 -16.5 31.1 -0.4Z" fill="#8385A9"></path></g><g transform="translate(3762 1073)"><path d="M21.8 -0.7C21.8 10.8 10.9 21.6 -0.2 21.6C-11.4 21.6 -22.7 10.8 -22.7 -0.7C-22.7 -12.2 -11.4 -24.3 -0.2 -24.3C10.9 -24.3 21.8 -12.2 21.8 -0.7Z" fill="#8385A9"></path></g><g transform="translate(517 1714)"><path d="M31.9 0.1C31.9 16.3 15.9 32.6 0.7 32.6C-14.5 32.6 -28.9 16.3 -28.9 0.1C-28.9 -16.2 -14.5 -32.3 0.7 -32.3C15.9 -32.3 31.9 -16.2 31.9 0.1Z" fill="#8385A9"></path></g><g transform="translate(2341 1050)"><path d="M24.1 0C24.1 11.4 12 22.8 0.3 22.8C-11.4 22.8 -22.7 11.4 -22.7 0C-22.7 -11.5 -11.4 -23 0.3 -23C12 -23 24.1 -11.5 24.1 0Z" fill="#8385A9"></path></g><g transform="translate(2636 625)"><path d="M27.2 0.1C27.2 12.9 13.6 25.8 0.2 25.8C-13.2 25.8 -26.3 12.9 -26.3 0.1C-26.3 -12.7 -13.2 -25.5 0.2 -25.5C13.6 -25.5 27.2 -12.7 27.2 0.1Z" fill="#8385A9"></path></g><g transform="translate(1507 442)"><path d="M28.4 0.2C28.4 14.7 14.2 29.5 -0.7 29.5C-15.5 29.5 -31 14.7 -31 0.2C-31 -14.3 -15.5 -28.6 -0.7 -28.6C14.2 -28.6 28.4 -14.3 28.4 0.2Z" fill="#8385A9"></path></g><g transform="translate(1659 290)"><path d="M19.8 0.6C19.8 10.9 9.9 21.8 -0.3 21.8C-10.6 21.8 -21.1 10.9 -21.1 0.6C-21.1 -9.7 -10.6 -19.5 -0.3 -19.5C9.9 -19.5 19.8 -9.7 19.8 0.6Z" fill="#8385A9"></path></g><g transform="translate(54 875)"><path d="M20.2 -0.2C20.2 10.8 10.1 21.5 -0.4 21.5C-10.8 21.5 -21.6 10.8 -21.6 -0.2C-21.6 -11.1 -10.8 -22.2 -0.4 -22.2C10.1 -22.2 20.2 -11.1 20.2 -0.2Z" fill="#8385A9"></path></g><g transform="translate(3417 1468)"><path d="M20.5 0.1C20.5 10.4 10.2 20.8 0.3 20.8C-9.7 20.8 -19.3 10.4 -19.3 0.1C-19.3 -10.2 -9.7 -20.4 0.3 -20.4C10.2 -20.4 20.5 -10.2 20.5 0.1Z" fill="#8385A9"></path></g><g transform="translate(2318 875)"><path d="M18.4 0.2C18.4 9 9.2 17.9 0.1 17.9C-8.9 17.9 -17.8 9 -17.8 0.2C-17.8 -8.5 -8.9 -17 0.1 -17C9.2 -17 18.4 -8.5 18.4 0.2Z" fill="#8385A9"></path></g><g transform="translate(1337 1486)"><path d="M15.3 0.2C15.3 8.5 7.6 17 -0.3 17C-8.2 17 -16.4 8.5 -16.4 0.2C-16.4 -8.1 -8.2 -16.1 -0.3 -16.1C7.6 -16.1 15.3 -8.1 15.3 0.2Z" fill="#8385A9"></path></g></g></svg>