<svg id="visual" viewBox="0 0 900 600" width="900" height="600" xmlns="http://www.w3.org/2000/svg" xmlns:xlink="http://www.w3.org/1999/xlink" version="1.1"><path d="M0 419L113 391L225 469L338 435L450 414L563 390L675 445L788 364L900 388L900 601L788 601L675 601L563 601L450 601L338 601L225 601L113 601L0 601Z" fill="#1a1823"></path><path d="M0 433L113 511L225 439L338 500L450 450L563 485L675 454L788 437L900 522L900 601L788 601L675 601L563 601L450 601L338 601L225 601L113 601L0 601Z" fill="#30253a"></path></svg>